<?xml version="1.0" encoding="utf-8"?>
<!-- Generator: Adobe Illustrator 23.0.3, SVG Export Plug-In . SVG Version: 6.00 Build 0)  -->
<svg version="1.1" id="Layer_1" xmlns="http://www.w3.org/2000/svg" xmlns:xlink="http://www.w3.org/1999/xlink" x="0px" y="0px"
	 viewBox="0 0 270.46 105.42" style="enable-background:new 0 0 270.46 105.42;" xml:space="preserve">
<style type="text/css">
	.st0{fill:url(#SVGID_1_);}
	.st1{fill:url(#SVGID_2_);}
	.st2{fill:url(#SVGID_3_);}
	.st3{fill:url(#SVGID_4_);}
	.st4{fill:url(#SVGID_5_);}
	.st5{fill:url(#SVGID_6_);}
	.st6{fill:#FFFFFF;}
</style>
<g>
	<g>
		<g>
			<g>
				<linearGradient id="SVGID_1_" gradientUnits="userSpaceOnUse" x1="69.6469" y1="32.934" x2="58.3343" y2="14.9046">
					<stop  offset="0" style="stop-color:#00ADEE"/>
					<stop  offset="0.369" style="stop-color:#00ABEC"/>
					<stop  offset="0.5275" style="stop-color:#02A5E5"/>
					<stop  offset="0.6456" style="stop-color:#049AD8"/>
					<stop  offset="0.7438" style="stop-color:#088BC6"/>
					<stop  offset="0.8295" style="stop-color:#0D77AF"/>
					<stop  offset="0.9065" style="stop-color:#135E93"/>
					<stop  offset="0.9755" style="stop-color:#194272"/>
					<stop  offset="1" style="stop-color:#1C3664"/>
				</linearGradient>
				<polygon class="st0" points="46.08,23.45 63.75,35.66 81.88,24.36 64.27,12.19 				"/>
			</g>
		</g>
		<linearGradient id="SVGID_2_" gradientUnits="userSpaceOnUse" x1="18.4759" y1="63.9511" x2="44.0504" y2="105.7522">
			<stop  offset="0" style="stop-color:#00ADEE"/>
			<stop  offset="0.369" style="stop-color:#00ABEC"/>
			<stop  offset="0.5275" style="stop-color:#02A5E5"/>
			<stop  offset="0.6456" style="stop-color:#049AD8"/>
			<stop  offset="0.7438" style="stop-color:#088BC6"/>
			<stop  offset="0.8295" style="stop-color:#0D77AF"/>
			<stop  offset="0.9065" style="stop-color:#135E93"/>
			<stop  offset="0.9755" style="stop-color:#194272"/>
			<stop  offset="1" style="stop-color:#1C3664"/>
		</linearGradient>
		<polygon class="st1" points="18.82,63.75 62.2,94.16 44.01,105.42 0,75.01 		"/>
		<linearGradient id="SVGID_3_" gradientUnits="userSpaceOnUse" x1="-6.8568" y1="32.0651" x2="16.1491" y2="68.2947">
			<stop  offset="0" style="stop-color:#00ADEE"/>
			<stop  offset="0.369" style="stop-color:#00ABEC"/>
			<stop  offset="0.5275" style="stop-color:#02A5E5"/>
			<stop  offset="0.6456" style="stop-color:#049AD8"/>
			<stop  offset="0.7438" style="stop-color:#088BC6"/>
			<stop  offset="0.8295" style="stop-color:#0D77AF"/>
			<stop  offset="0.9065" style="stop-color:#135E93"/>
			<stop  offset="0.9755" style="stop-color:#194272"/>
			<stop  offset="1" style="stop-color:#1C3664"/>
		</linearGradient>
		<polygon class="st2" points="18.82,40.36 0,28.17 0,75.01 18.82,63.75 		"/>
		<linearGradient id="SVGID_4_" gradientUnits="userSpaceOnUse" x1="47.1659" y1="-0.1178" x2="15.4414" y2="42.7192">
			<stop  offset="0" style="stop-color:#00ADEE"/>
			<stop  offset="0.369" style="stop-color:#00ABEC"/>
			<stop  offset="0.5275" style="stop-color:#02A5E5"/>
			<stop  offset="0.6456" style="stop-color:#049AD8"/>
			<stop  offset="0.7438" style="stop-color:#088BC6"/>
			<stop  offset="0.8295" style="stop-color:#0D77AF"/>
			<stop  offset="0.9065" style="stop-color:#135E93"/>
			<stop  offset="0.9755" style="stop-color:#194272"/>
			<stop  offset="1" style="stop-color:#1C3664"/>
		</linearGradient>
		<polygon class="st3" points="18.82,40.36 0,28.17 46.63,0 64.27,12.19 		"/>
		<linearGradient id="SVGID_5_" gradientUnits="userSpaceOnUse" x1="53.335" y1="95.1207" x2="69.9976" y2="73.8805">
			<stop  offset="0" style="stop-color:#00ADEE"/>
			<stop  offset="0.369" style="stop-color:#00ABEC"/>
			<stop  offset="0.5275" style="stop-color:#02A5E5"/>
			<stop  offset="0.6456" style="stop-color:#049AD8"/>
			<stop  offset="0.7438" style="stop-color:#088BC6"/>
			<stop  offset="0.8295" style="stop-color:#0D77AF"/>
			<stop  offset="0.9065" style="stop-color:#135E93"/>
			<stop  offset="0.9755" style="stop-color:#194272"/>
			<stop  offset="1" style="stop-color:#1C3664"/>
		</linearGradient>
		<polygon class="st4" points="62.2,94.16 81.88,82.91 63.18,70.5 44.73,81.92 		"/>
		<linearGradient id="SVGID_6_" gradientUnits="userSpaceOnUse" x1="81.8525" y1="87.3401" x2="58.0452" y2="50.5471">
			<stop  offset="0" style="stop-color:#00ADEE"/>
			<stop  offset="0.369" style="stop-color:#00ABEC"/>
			<stop  offset="0.5275" style="stop-color:#02A5E5"/>
			<stop  offset="0.6456" style="stop-color:#049AD8"/>
			<stop  offset="0.7438" style="stop-color:#088BC6"/>
			<stop  offset="0.8295" style="stop-color:#0D77AF"/>
			<stop  offset="0.9065" style="stop-color:#135E93"/>
			<stop  offset="0.9755" style="stop-color:#194272"/>
			<stop  offset="1" style="stop-color:#1C3664"/>
		</linearGradient>
		<polygon class="st5" points="81.88,82.91 81.88,59.49 63.39,47.32 45.19,58.58 		"/>
	</g>
	<g>
		<path class="st6" d="M118.93,29.98c-1.16-0.58-2.52-1.02-4.04-1.29c-1.49-0.27-3.05-0.41-4.65-0.41H94.41v48.89h6.85v-17.8h8.72
			c1.66,0,3.1-0.06,4.29-0.18c1.23-0.12,2.39-0.36,3.46-0.73c1.25-0.45,2.44-1.14,3.55-2.04c1.09-0.89,2.08-1.98,2.92-3.24
			c0.84-1.26,1.52-2.71,2.02-4.3c0.5-1.6,0.75-3.37,0.75-5.27c0-3.28-0.79-6.11-2.35-8.41C123.09,32.92,121.18,31.17,118.93,29.98z
			 M110.05,53.24h-8.79V34.41h8.98c2.43,0,4.35,0.39,5.72,1.17c1.18,0.65,2.19,1.64,2.99,2.96c0.8,1.31,1.21,3.06,1.21,5.19
			c0,1.14-0.14,2.23-0.42,3.24c-0.28,1.01-0.65,1.91-1.12,2.69c-0.46,0.77-0.99,1.43-1.58,1.95c-0.56,0.5-1.18,0.86-1.83,1.08
			c-0.77,0.27-1.51,0.42-2.18,0.47C112.27,53.21,111.28,53.24,110.05,53.24z"/>
		<path class="st6" d="M174.27,34.83c-2.25-2.25-4.94-4.03-8.01-5.3c-3.07-1.27-6.44-1.91-10.03-1.91c-3.4,0-6.68,0.67-9.73,1.98
			c-3.04,1.31-5.73,3.12-8,5.39c-2.26,2.26-4.08,4.95-5.42,7.99c-1.34,3.05-2.01,6.36-2.01,9.83c0,3.53,0.67,6.86,1.98,9.88
			c1.31,3.02,3.12,5.69,5.39,7.94c2.27,2.25,4.96,4.02,8.01,5.28c3.05,1.26,6.37,1.89,9.87,1.89c3.52,0,6.85-0.63,9.9-1.86
			c3.05-1.24,5.73-3.01,7.98-5.25c2.25-2.25,4.04-4.93,5.33-7.97c1.29-3.05,1.94-6.41,1.94-10c0-3.53-0.64-6.86-1.91-9.9
			C178.3,39.76,176.52,37.08,174.27,34.83z M174.63,52.87c0,2.61-0.44,5.09-1.32,7.36c-0.87,2.26-2.12,4.27-3.72,5.97
			c-1.59,1.69-3.54,3.04-5.78,4.01c-2.24,0.97-4.79,1.46-7.57,1.46c-2.67,0-5.15-0.51-7.37-1.51c-2.23-1.01-4.17-2.38-5.77-4.08
			c-1.6-1.7-2.88-3.71-3.79-5.99c-0.91-2.27-1.37-4.72-1.37-7.28c0-2.52,0.46-4.97,1.37-7.27c0.92-2.31,2.19-4.35,3.8-6.07
			c1.6-1.72,3.55-3.11,5.8-4.14c2.24-1.02,4.74-1.54,7.43-1.54c2.76,0,5.3,0.49,7.54,1.46c2.24,0.97,4.17,2.31,5.75,4.01
			c1.58,1.7,2.82,3.73,3.69,6.04C174.19,47.6,174.63,50.15,174.63,52.87z"/>
		<path class="st6" d="M229.34,34.83c-2.25-2.25-4.94-4.03-8.01-5.3c-3.07-1.27-6.44-1.91-10.03-1.91c-3.4,0-6.68,0.67-9.73,1.98
			c-3.04,1.31-5.73,3.12-8,5.39c-2.26,2.26-4.08,4.95-5.42,7.99c-1.34,3.05-2.01,6.36-2.01,9.83c0,3.53,0.67,6.86,1.98,9.88
			c1.31,3.02,3.12,5.69,5.39,7.94c2.27,2.25,4.96,4.02,8.01,5.28c3.05,1.26,6.37,1.89,9.87,1.89c3.52,0,6.85-0.63,9.9-1.86
			c3.05-1.24,5.73-3.01,7.98-5.25c2.25-2.25,4.04-4.93,5.33-7.97c1.29-3.05,1.94-6.41,1.94-10c0-3.53-0.64-6.86-1.91-9.9
			C233.37,39.76,231.59,37.08,229.34,34.83z M229.7,52.87c0,2.61-0.44,5.09-1.32,7.36c-0.87,2.26-2.12,4.27-3.72,5.97
			c-1.59,1.69-3.54,3.04-5.78,4.01c-2.24,0.97-4.79,1.46-7.57,1.46c-2.67,0-5.15-0.51-7.37-1.51c-2.23-1.01-4.17-2.38-5.77-4.08
			c-1.6-1.7-2.88-3.71-3.79-5.99c-0.91-2.27-1.37-4.72-1.37-7.28c0-2.52,0.46-4.97,1.37-7.27c0.92-2.31,2.19-4.35,3.8-6.07
			c1.6-1.72,3.55-3.11,5.8-4.14c2.24-1.02,4.74-1.54,7.43-1.54c2.76,0,5.3,0.49,7.54,1.46c2.24,0.97,4.17,2.31,5.75,4.01
			c1.58,1.7,2.82,3.73,3.69,6.04C229.26,47.6,229.7,50.15,229.7,52.87z"/>
		<polygon class="st6" points="249.37,71.04 249.37,28.28 242.51,28.28 242.51,77.17 270.46,77.17 270.46,71.04 		"/>
	</g>
</g>
</svg>
